<?xml version="1.0" standalone="no"?>
<!DOCTYPE svg PUBLIC "-//W3C//DTD SVG 20010904//EN"
 "http://www.w3.org/TR/2001/REC-SVG-20010904/DTD/svg10.dtd">
<svg version="1.0" xmlns="http://www.w3.org/2000/svg"
 width="300.000000pt" height="300.000000pt" viewBox="0 0 300.000000 300.000000"
 preserveAspectRatio="xMidYMid meet">
<metadata>
Created by potrace 1.11, written by Peter Selinger 2001-2013
</metadata>
<g transform="translate(0.000000,300.000000) scale(0.100000,-0.100000)"
fill="#000000" stroke="none">
<path d="M1423 2702 c15 -6 13 -10 -15 -26 -47 -28 -64 -56 -33 -56 8 0 15 -4
15 -10 0 -5 11 -12 25 -16 14 -3 30 -15 36 -25 6 -11 21 -19 37 -19 19 0 36
-12 58 -38 41 -49 53 -122 29 -178 -17 -42 -18 -50 -4 -46 12 3 11 -15 -1 -23
-5 -3 -10 -1 -10 6 0 8 -4 8 -12 2 -26 -20 -58 -22 -68 -3 -5 9 -23 20 -41 24
-21 4 -29 10 -26 20 6 15 -12 26 -45 26 -17 0 -18 -2 -8 -15 10 -12 10 -21 1
-41 -13 -30 -14 -47 -2 -40 5 4 17 3 26 0 12 -5 13 -9 5 -14 -9 -5 -9 -13 -2
-27 14 -25 5 -64 -19 -83 -10 -8 -20 -31 -22 -50 -2 -20 -7 -41 -11 -49 -5 -8
-1 -14 12 -18 21 -5 37 -33 58 -100 12 -41 12 -42 -21 -77 -21 -23 -35 -31
-38 -23 -3 6 -6 -3 -6 -21 -1 -18 -7 -35 -15 -38 -23 -9 -4 -169 21 -178 11
-4 13 -2 9 9 -3 9 0 15 9 15 18 0 22 -24 14 -90 -4 -30 -8 -89 -8 -130 -1 -68
-3 -76 -20 -76 -13 0 -19 7 -18 18 1 21 13 24 20 6 3 -7 6 -3 6 10 1 14 -5 22
-16 23 -11 0 -13 3 -5 6 6 2 12 17 12 31 l0 27 -16 -30 c-19 -37 -40 -59 -31
-32 4 10 2 27 -3 38 -7 13 -7 19 0 19 5 0 10 -5 10 -12 0 -9 3 -8 13 1 9 10 9
15 1 18 -7 2 -11 12 -9 21 1 9 0 11 -2 5 -5 -15 -23 -17 -23 -3 0 6 -3 10 -7
10 -9 0 -9 -57 -1 -65 11 -11 -4 -53 -17 -49 -16 7 -14 -11 7 -51 8 -16 13
-36 10 -44 -3 -8 0 -11 7 -7 7 5 9 1 5 -8 -3 -9 -12 -16 -19 -16 -9 0 -12 -16
-10 -55 2 -50 -7 -73 -17 -43 -3 9 -6 9 -12 0 -4 -7 -3 -12 2 -12 6 0 8 -10 6
-23 -4 -20 -4 -21 5 -2 5 11 10 16 10 10 1 -13 51 -36 62 -29 5 3 9 0 9 -5 0
-6 -4 -11 -9 -11 -5 0 -11 -9 -14 -20 -3 -11 -1 -20 4 -20 5 0 9 5 9 12 0 6 3
8 6 5 4 -4 2 -12 -3 -19 -6 -7 -13 -23 -16 -35 -4 -19 -1 -23 19 -23 20 0 24
-5 24 -32 0 -54 -10 -76 -42 -91 -27 -13 -28 -16 -13 -25 21 -11 12 -32 -15
-32 -14 0 -18 6 -15 23 4 20 3 21 -9 4 -9 -11 -20 -15 -31 -10 -13 4 -16 3
-11 -5 5 -8 -2 -12 -21 -11 -16 1 -21 3 -11 6 14 3 15 7 5 18 -9 9 -14 10 -19
1 -5 -7 -8 -5 -8 6 0 9 5 20 11 23 13 9 5 88 -10 93 -8 3 -8 9 0 24 6 12 7 18
1 14 -6 -4 -8 24 -5 77 6 97 6 155 0 257 -3 41 -2 80 2 85 14 18 21 45 11 45
-5 0 -11 -10 -13 -22 -2 -13 -5 9 -6 47 -2 39 -4 84 -6 100 -1 17 -4 82 -5
145 -3 132 -6 146 -26 125 -12 -12 -12 -20 -1 -52 7 -21 14 -58 15 -83 l2 -45
-35 80 c-30 65 -35 88 -31 125 4 33 3 38 -4 20 -15 -45 -12 -150 6 -167 14
-15 14 -17 -1 -25 -17 -10 -15 -67 7 -140 8 -28 8 -44 -1 -66 -9 -22 -9 -39 0
-75 18 -73 9 -82 -50 -53 -50 26 -61 25 -61 -5 0 -15 6 -17 30 -12 24 4 35 0
55 -21 24 -26 34 -53 16 -42 -9 6 -24 -35 -15 -43 3 -3 14 0 24 7 12 7 20 8
20 2 0 -5 -4 -10 -10 -10 -5 0 -14 -19 -20 -41 -11 -42 -8 -51 24 -62 7 -2 9
-40 4 -92 -1 -11 -13 -15 -44 -15 -47 0 -76 -8 -69 -19 9 -16 18 -79 19 -141
2 -58 -1 -67 -23 -86 -21 -18 -23 -24 -13 -36 6 -8 9 -18 5 -21 -3 -4 1 -7 10
-7 19 0 25 -32 15 -80 -4 -19 -10 -52 -13 -73 -5 -29 -10 -37 -27 -37 -18 0
-20 4 -15 41 8 62 -12 44 -67 -62 -47 -91 -49 -97 -55 -203 -4 -80 -10 -111
-20 -114 -9 -3 -11 0 -6 9 6 11 5 11 -5 2 -15 -14 -5 -47 11 -37 7 4 9 0 5
-13 -4 -12 -1 -25 9 -33 8 -7 15 -26 15 -43 0 -29 -1 -30 -14 -12 -8 11 -12
23 -10 27 3 5 1 8 -4 8 -11 0 -26 -49 -17 -58 3 -3 5 3 5 14 1 18 1 18 14 2
10 -13 27 -18 65 -18 54 0 57 3 41 45 -8 20 -7 27 6 32 21 8 34 -8 37 -45 1
-24 7 -32 21 -32 15 0 17 5 11 27 -11 45 -11 47 9 51 16 3 18 -1 14 -37 -2
-28 0 -41 9 -41 15 0 27 43 20 70 -3 11 -2 18 3 15 4 -3 10 5 14 17 4 17 8 20
17 11 8 -8 8 -16 -1 -32 -6 -12 -8 -31 -4 -43 4 -14 2 -18 -5 -14 -7 5 -9 1
-5 -8 9 -24 17 -20 61 29 22 25 36 45 32 45 -5 0 -9 7 -9 15 0 8 6 14 13 13
11 -3 13 21 6 72 -1 8 -1 44 1 80 l3 65 10 -69 10 -68 39 43 c22 24 34 35 27
24 -7 -11 -26 -34 -42 -52 -26 -27 -29 -37 -23 -68 6 -28 11 -35 24 -30 14 5
14 4 -1 -13 -10 -11 -17 -35 -17 -59 l0 -41 246 -1 c230 -1 246 0 239 17 -4 9
-9 33 -12 52 l-4 35 17 -34 c16 -30 19 -31 26 -15 5 14 7 9 5 -16 -2 -29 2
-36 19 -38 16 -2 23 5 32 34 8 27 8 41 0 51 -9 11 -5 16 12 15 3 0 5 16 3 36
-3 39 1 35 11 -10 4 -16 13 -28 20 -28 32 0 106 -40 106 -57 0 -16 -1 -16 -12
0 -15 19 -96 50 -109 41 -5 -3 -6 -10 -3 -16 4 -6 2 -13 -3 -17 -6 -3 -13 -16
-17 -28 -7 -21 -4 -23 33 -23 29 0 41 5 44 18 4 16 5 16 6 0 1 -16 12 -18 79
-18 49 0 83 5 91 12 9 9 12 9 7 1 -4 -8 11 -11 54 -12 44 0 63 4 67 15 3 7 9
14 15 14 5 0 6 -5 2 -12 -4 -7 -3 -8 4 -4 7 4 12 15 12 26 0 10 7 21 16 24 10
4 14 14 11 26 -4 17 4 26 17 18 2 -2 13 6 25 16 28 25 27 15 -4 -30 -14 -20
-25 -33 -25 -28 0 5 -9 -6 -20 -24 -11 -18 -20 -35 -20 -37 0 -3 15 -5 34 -5
29 0 36 4 45 31 6 18 11 38 11 46 0 7 12 31 26 53 14 21 27 51 28 65 1 17 7
25 19 25 21 0 21 9 2 34 -19 25 -21 76 -3 58 7 -7 13 -22 13 -35 0 -34 27 -26
41 13 7 19 13 29 13 23 2 -23 19 -14 33 17 7 17 16 30 20 30 3 0 4 9 1 20 -8
29 -23 25 -23 -6 0 -14 -4 -23 -10 -19 -5 3 -10 -1 -10 -9 0 -9 -4 -16 -10
-16 -13 0 -13 17 0 25 14 9 12 42 -2 48 -8 3 -6 6 4 6 24 1 45 41 27 52 -15 9
-31 -18 -21 -35 3 -5 0 -6 -6 -2 -7 4 -12 13 -12 20 0 17 -40 29 -40 13 -1 -7
-10 -23 -21 -36 -19 -23 -20 -23 -34 -5 -14 17 -14 17 -4 -8 10 -22 15 -25 26
-16 11 9 12 7 4 -16 -6 -14 -8 -26 -5 -26 2 0 0 -9 -6 -20 -6 -11 -15 -20 -21
-20 -6 0 -6 7 1 19 10 20 4 51 -10 51 -5 0 -6 -10 -3 -22 3 -17 2 -19 -5 -9
-5 7 -14 11 -18 9 -5 -3 -20 6 -34 20 -14 14 -18 22 -10 20 19 -7 20 33 1 56
-21 25 -34 19 -28 -11 2 -16 1 -37 -3 -48 -7 -17 -9 -16 -11 10 -7 90 -8 92
-19 75 -5 -8 -7 -22 -5 -31 3 -8 -1 -23 -8 -33 -13 -18 -15 -17 -33 7 -11 13
-35 28 -53 32 -40 9 -33 18 15 19 l36 1 0 66 c0 80 -12 106 -55 117 -19 5 -33
16 -35 27 -4 16 1 17 36 11 23 -3 43 -3 45 1 3 5 8 46 12 93 4 47 11 87 16 88
16 6 10 19 -17 37 -15 9 -23 12 -20 6 4 -6 0 -11 -9 -11 -9 0 -13 5 -10 10 3
6 1 10 -4 10 -6 0 -11 5 -11 10 0 6 12 10 26 10 14 0 23 4 19 9 -3 5 -22 8
-43 6 -20 -3 -29 -2 -19 1 18 6 22 19 8 28 -5 4 -11 0 -14 -6 -2 -7 -8 -10
-12 -6 -17 16 6 37 50 43 34 6 43 10 35 20 -5 6 -7 14 -5 17 12 12 17 247 6
299 -12 55 -24 163 -23 207 0 27 -19 28 -43 2 -20 -22 -35 -26 -35 -10 0 6 6
10 13 10 8 0 14 7 14 15 0 8 -3 15 -7 15 -4 0 -7 48 -7 108 0 59 -4 118 -10
131 -8 21 -11 16 -16 -40 -7 -60 -23 -89 -49 -89 -14 0 -8 104 7 130 21 37 19
53 -5 40 -12 -6 -20 -21 -21 -38 l-1 -27 -11 32 c-7 17 -15 34 -18 38 -10 9
-8 -273 2 -308 6 -20 5 -33 -2 -37 -9 -6 -74 8 -112 25 -10 4 -20 5 -24 2 -9
-9 67 -37 111 -41 l41 -4 3 -73 c2 -40 -1 -70 -5 -65 -4 4 -8 11 -8 15 0 4 -7
15 -17 24 -9 9 -18 22 -21 29 -4 10 -7 11 -18 0 -11 -10 -11 -18 0 -49 16 -43
17 -251 2 -266 -7 -7 -8 -3 -5 9 2 10 0 25 -5 33 -12 18 -32 5 -24 -16 5 -11
3 -14 -6 -9 -9 6 -12 1 -9 -20 2 -23 -1 -30 -18 -32 -19 -3 -21 1 -19 30 1 18
0 39 -2 46 -6 14 -33 16 -33 2 0 -5 -4 -10 -9 -10 -6 0 -11 24 -13 53 -2 35
-7 51 -15 50 -7 -2 -13 4 -13 13 0 8 4 13 9 10 11 -7 21 38 27 124 3 36 7 76
9 90 3 14 7 61 10 105 l5 80 -14 -63 c-12 -58 -26 -81 -49 -82 -5 0 -5 9 -2
20 5 16 2 20 -14 20 -17 0 -21 -6 -21 -30 0 -22 5 -30 18 -30 10 0 23 5 30 12
17 17 20 8 10 -30 -5 -20 -15 -32 -26 -33 -9 0 -12 -3 -6 -5 19 -8 4 -54 -17
-54 -25 0 -24 -17 1 -25 11 -3 20 -14 20 -23 0 -13 -2 -13 -14 4 -13 17 -15
18 -21 2 -9 -23 2 -39 22 -31 10 4 14 2 11 -7 -2 -7 -14 -14 -26 -15 -21 -2
-22 2 -22 72 0 43 4 72 9 68 5 -3 12 -1 16 5 3 5 -1 10 -10 10 -15 0 -16 17
-9 168 3 92 10 174 14 182 4 8 11 45 15 81 6 58 9 66 26 62 18 -5 18 -6 -1
-44 -32 -62 -23 -101 14 -64 19 20 38 88 30 109 -10 27 3 18 24 -16 l21 -32
12 27 c11 24 10 30 -6 45 -13 12 -16 13 -10 2 4 -8 -6 0 -24 18 -24 26 -31 42
-31 73 l0 39 -21 -21 c-23 -23 -39 -18 -19 6 10 12 10 15 0 15 -8 0 -10 9 -6
28 5 19 -3 12 -28 -27 -18 -30 -41 -58 -49 -63 -9 -5 -14 -15 -11 -22 3 -9 -1
-13 -13 -13 -9 1 -18 -5 -18 -13 0 -24 -28 -18 -30 7 -1 13 3 19 11 16 14 -5
35 48 29 77 -3 13 4 26 19 36 29 18 40 67 44 184 1 35 8 56 22 70 19 19 67 29
56 11 -3 -5 1 -14 8 -20 21 -17 26 -2 31 81 4 68 3 73 -30 120 -19 26 -35 52
-35 58 0 5 -7 7 -15 4 -11 -5 -13 -2 -8 12 4 11 3 15 -5 10 -6 -3 -13 -2 -17
4 -3 5 -19 7 -34 4 -16 -4 -32 -1 -35 5 -4 6 -35 11 -74 10 -37 0 -59 -4 -49
-7z m36 -480 c0 -11 -3 -12 -6 -4 -2 6 -12 12 -21 12 -14 0 -15 2 -2 9 18 12
30 5 29 -17z m-5 -127 c9 -13 13 -30 10 -38 -6 -17 44 -80 57 -71 6 3 17 3 25
0 24 -9 -20 -66 -52 -66 -21 0 -24 5 -24 33 0 19 -15 62 -35 99 -19 36 -32 68
-29 71 10 10 32 -4 48 -28z m233 -187 c-3 -8 -6 -5 -6 6 -1 11 2 17 5 13 3 -3
4 -12 1 -19z m-217 -35 c0 -9 -1 -14 -3 -12 -1 2 -11 15 -22 28 l-20 24 23
-12 c12 -6 22 -19 22 -28z m-40 -83 c-6 -11 -13 -20 -15 -20 -3 0 -5 9 -5 20
0 11 7 20 15 20 13 0 14 -4 5 -20z m-30 -24 c0 -3 -4 -8 -10 -11 -5 -3 -10 -1
-10 4 0 6 5 11 10 11 6 0 10 -2 10 -4z m30 -10 c0 -3 -4 -8 -10 -11 -5 -3 -10
-1 -10 4 0 6 5 11 10 11 6 0 10 -2 10 -4z m-35 -26 c-3 -5 -12 -10 -18 -10 -7
0 -6 4 3 10 19 12 23 12 15 0z m44 -57 c-1 -38 -4 -59 -6 -49 -4 15 -7 16 -14
5 -6 -10 -9 -7 -9 13 0 14 6 28 13 31 9 3 9 7 -2 20 -9 11 -10 17 -2 17 6 0
11 7 11 15 0 8 2 15 5 15 3 0 4 -30 4 -67z m-326 -43 c4 -16 0 -20 -19 -20
-23 0 -23 1 -6 19 9 11 18 20 18 20 1 1 4 -8 7 -19z m317 -50 c0 -19 -19 -20
-29 -1 -16 28 -14 33 9 21 11 -6 20 -15 20 -20z m-314 -7 c-10 -10 -19 5 -10
18 6 11 8 11 12 0 2 -7 1 -15 -2 -18z m920 -50 c-10 -10 -19 5 -10 18 6 11 8
11 12 0 2 -7 1 -15 -2 -18z m-630 -15 l-16 -22 0 22 c0 13 4 20 10 17 6 -3 10
-1 10 6 0 7 3 10 6 6 3 -3 -1 -16 -10 -29z m619 -170 c-14 -73 -33 -153 -41
-177 -24 -76 -14 -79 20 -6 18 39 43 86 54 105 18 29 22 32 22 13 0 -12 -6
-28 -13 -35 -17 -17 -47 -77 -47 -95 0 -7 -18 -52 -39 -100 -44 -100 -47 -109
-95 -288 -46 -170 -50 -185 -41 -185 4 0 14 8 21 18 13 16 15 16 28 -2 13 -16
13 -21 -1 -43 l-17 -25 -17 21 c-9 11 -19 21 -22 21 -2 0 -17 -43 -33 -95 -15
-52 -30 -93 -31 -91 -5 5 13 82 52 216 85 293 105 383 95 425 -5 22 -9 65 -9
95 l0 55 14 -43 c7 -23 11 -51 8 -62 -3 -11 -1 -20 4 -20 5 0 18 44 27 98 10
53 27 144 38 202 11 58 20 117 20 132 1 23 3 25 15 12 12 -12 11 -32 -12 -146z
m-605 61 c0 -5 -7 -9 -15 -9 -15 0 -20 12 -9 23 8 8 24 -1 24 -14z m262 -11
c-7 -7 -12 -8 -12 -2 0 6 3 14 7 17 3 4 9 5 12 2 2 -3 -1 -11 -7 -17z m-253
-65 c0 -16 -3 -22 -6 -15 -4 10 -8 10 -19 1 -20 -17 -17 1 4 22 22 23 22 23
21 -8z m191 -71 c-7 -13 -9 -8 -9 23 0 35 1 37 10 17 6 -15 5 -30 -1 -40z m40
28 c0 -5 -4 -10 -10 -10 -5 0 -10 5 -10 10 0 6 5 10 10 10 6 0 10 -4 10 -10z
m-290 -39 c0 -5 -9 -7 -20 -4 -11 3 -20 7 -20 9 0 2 9 4 20 4 11 0 20 -4 20
-9z m31 -34 c-13 -13 -26 -3 -16 12 3 6 11 8 17 5 6 -4 6 -10 -1 -17z m382
-149 c7 -26 1 -39 -16 -32 -15 5 -16 54 -1 54 7 0 14 -10 17 -22z m-381 -43
c0 -5 -5 -11 -11 -13 -6 -2 -11 4 -11 13 0 9 5 15 11 13 6 -2 11 -8 11 -13z
m378 -5 c8 -5 12 -12 9 -15 -8 -8 -39 5 -39 16 0 11 11 11 30 -1z m7 -70 c0
-8 3 -30 8 -49 4 -22 4 -31 -3 -27 -6 4 -8 -10 -6 -39 4 -35 1 -45 -11 -45
-19 0 -19 -5 1 -35 9 -14 12 -25 6 -25 -14 0 -27 20 -39 63 -9 30 -8 44 2 64
8 15 12 30 9 35 -3 4 1 8 8 8 10 0 10 2 -1 9 -8 5 -11 16 -8 25 3 8 0 22 -8
30 -17 17 -20 30 -5 21 6 -3 10 -1 10 6 0 8 8 5 18 -7 10 -11 19 -26 19 -34z
m-95 -2 c2 -7 4 -26 3 -43 -1 -16 -3 -76 -6 -132 -2 -57 -7 -103 -11 -103 -10
0 -12 46 -9 208 1 73 11 105 23 70z m-573 -70 c-2 -56 0 -63 15 -60 12 2 16
-2 13 -10 -2 -7 -11 -12 -20 -12 -13 1 -14 -2 -6 -18 9 -17 8 -18 -10 -6 -16
10 -21 23 -21 59 0 43 16 109 27 109 2 0 3 -28 2 -62z m271 27 c0 -9 -6 -12
-16 -8 -13 5 -13 7 -2 14 17 11 18 11 18 -6z m17 -7 c-3 -8 -6 -5 -6 6 -1 11
2 17 5 13 3 -3 4 -12 1 -19z m-23 -49 c-3 -5 0 -9 5 -9 6 0 11 -5 11 -11 0
-21 -35 -4 -36 18 -1 14 3 20 12 16 8 -3 11 -9 8 -14z m601 -22 c7 -25 8 -105
3 -150 -2 -23 -5 -25 -14 -12 -6 8 -19 15 -28 15 -15 0 -16 6 -10 33 4 17 6
45 5 61 -1 15 4 35 10 43 10 11 10 13 -1 11 -7 -2 -15 3 -17 10 -3 7 5 12 21
12 18 0 27 -6 31 -23z m-475 -149 c0 -6 -6 -5 -15 2 -8 7 -15 14 -15 16 0 2 7
1 15 -2 8 -4 15 -11 15 -16z m330 8 c0 -8 -4 -18 -10 -21 -5 -3 -10 3 -10 14
0 12 5 21 10 21 6 0 10 -6 10 -14z m-360 -36 c0 -16 -4 -30 -10 -30 -5 0 -10
14 -10 30 0 17 5 30 10 30 6 0 10 -13 10 -30z m-330 -46 c7 -7 16 -11 21 -8 5
3 9 0 9 -5 0 -13 -6 -13 -49 -5 -17 4 -31 12 -31 18 0 17 37 17 50 0z m818 -4
c-10 -16 -10 -24 0 -40 8 -13 8 -20 1 -20 -5 0 -8 -4 -4 -9 3 -5 0 -13 -6 -17
-8 -4 -10 9 -8 45 2 28 0 53 -6 55 -5 3 0 5 13 5 20 1 21 -1 10 -19z m-916
-15 c-2 -14 -8 -28 -13 -31 -5 -3 -7 2 -4 10 3 9 7 23 10 31 7 24 13 17 7 -10z
m618 -25 c0 -28 -4 -38 -13 -34 -8 3 -11 17 -9 39 6 48 22 44 22 -5z m38 -64
c-3 -19 -3 -19 -18 -1 -10 12 -10 16 -2 11 10 -6 12 4 8 46 l-5 53 9 -45 c6
-25 9 -54 8 -64z m-341 88 c-3 -3 -12 -4 -19 -1 -8 3 -5 6 6 6 11 1 17 -2 13
-5z m96 -1 c-7 -2 -19 -2 -25 0 -7 3 -2 5 12 5 14 0 19 -2 13 -5z m-508 -123
c14 -27 14 -36 1 -86 -8 -31 -23 -62 -33 -71 -10 -8 -12 -12 -5 -8 6 3 12 1
12 -4 0 -6 -4 -11 -9 -11 -5 0 -15 -17 -23 -37 l-13 -38 -6 60 c-4 33 -7 88
-8 123 -1 60 0 63 32 82 17 11 33 20 34 20 1 0 9 -14 18 -30z m871 -17 c-10
-10 -19 5 -10 18 6 11 8 11 12 0 2 -7 1 -15 -2 -18z m162 -2 c-4 -19 -28 -25
-48 -11 -13 9 -13 12 3 25 23 17 49 9 45 -14z m387 -18 c-3 -40 -4 -43 -15
-43 -5 0 -10 6 -10 14 0 8 -6 17 -12 20 -9 3 -7 9 6 20 28 22 33 20 31 -11z
m-280 -14 c-4 -5 0 -16 8 -24 17 -16 11 -56 -7 -52 -6 1 -9 -7 -8 -17 2 -11
-4 -26 -13 -33 -10 -7 -15 -19 -12 -28 4 -8 2 -15 -4 -15 -6 0 -9 -21 -8 -52
2 -49 -12 -98 -29 -98 -4 0 -7 13 -8 30 -1 16 3 27 7 24 11 -6 12 50 2 60 -4
3 -13 -6 -20 -21 -12 -26 -13 -25 -7 20 3 31 1 47 -6 47 -7 0 -8 6 -1 18 7 13
6 23 -2 31 -9 9 -4 9 18 -1 17 -7 33 -16 36 -21 3 -5 9 -2 12 7 4 9 2 15 -4
13 -6 -1 -12 19 -14 45 -4 41 -1 50 22 67 24 20 50 20 38 0z m-828 -41 c-3 -8
-6 -5 -6 6 -1 11 2 17 5 13 3 -3 4 -12 1 -19z m-190 -10 c-3 -8 -6 -5 -6 6 -1
11 2 17 5 13 3 -3 4 -12 1 -19z m479 14 c17 -11 78 -151 69 -160 -2 -2 1 -14
7 -26 8 -16 4 -14 -16 7 -30 32 -32 39 -10 30 14 -5 15 -3 5 15 -7 12 -16 22
-21 22 -5 0 -7 7 -4 15 4 8 1 15 -5 15 -6 0 -11 -3 -11 -7 0 -5 -4 -14 -9 -22
-16 -24 -51 5 -51 42 0 66 16 89 46 69z m204 -64 c-15 -63 -33 -110 -24 -63
11 62 28 124 32 120 2 -2 -1 -28 -8 -57z m400 18 c0 -5 -7 -1 -15 10 -8 10
-14 24 -14 29 0 6 6 1 14 -9 8 -11 15 -24 15 -30z m-900 -11 c7 -9 8 -15 2
-15 -5 0 -12 7 -16 15 -3 8 -4 15 -2 15 2 0 9 -7 16 -15z m1020 -25 c0 -5 -7
-7 -15 -4 -8 4 -15 8 -15 10 0 2 7 4 15 4 8 0 15 -4 15 -10z m-1143 -52 c-3
-7 -5 -2 -5 12 0 14 2 19 5 13 2 -7 2 -19 0 -25z m1173 22 c0 -5 -5 -10 -11
-10 -5 0 -7 5 -4 10 3 6 8 10 11 10 2 0 4 -4 4 -10z m-150 -52 c0 -5 -4 -8
-10 -8 -14 0 -32 39 -24 52 6 10 33 -25 34 -44z m-620 16 c0 -8 5 -12 10 -9 6
3 10 1 10 -4 0 -6 -7 -11 -16 -11 -8 0 -12 -4 -9 -10 3 -5 1 -18 -4 -27 -9
-16 -10 -14 -11 9 0 15 -4 30 -10 33 -6 4 -5 13 2 25 13 21 28 17 28 -6z m681
3 c-10 -9 -11 -8 -5 6 3 10 9 15 12 12 3 -3 0 -11 -7 -18z m-145 -19 c-18 -26
-22 -17 -5 14 6 11 13 17 16 15 3 -3 -2 -16 -11 -29z m-944 -27 c-3 -9 -1 -12
6 -7 6 3 5 -6 -3 -22 -16 -32 -65 -81 -65 -65 0 5 9 18 20 28 14 13 20 31 20
62 0 37 2 42 14 31 7 -7 11 -19 8 -27z m985 7 c-3 -7 -5 -2 -5 12 0 14 2 19 5
13 2 -7 2 -19 0 -25z m130 -12 c-12 -18 -24 -32 -26 -30 -7 7 32 73 40 68 4
-2 -2 -20 -14 -38z m-47 14 c-6 -11 -8 -25 -5 -30 3 -6 2 -10 -4 -10 -17 0
-19 24 -3 43 20 23 25 22 12 -3z m-473 -12 c-3 -8 -6 -5 -6 6 -1 11 2 17 5 13
3 -3 4 -12 1 -19z m-222 -18 c3 -5 1 -10 -4 -10 -6 0 -11 5 -11 10 0 6 2 10 4
10 3 0 8 -4 11 -10z m-210 -54 c4 -24 4 -55 0 -68 -8 -22 -8 -22 -16 -3 -11
29 -11 127 0 120 6 -3 13 -25 16 -49z m290 27 c-9 -8 -19 -13 -22 -9 -9 8 18
37 28 30 5 -3 2 -12 -6 -21z m532 -5 c-3 -7 -5 -2 -5 12 0 14 2 19 5 13 2 -7
2 -19 0 -25z m-477 2 c0 -11 -2 -20 -4 -20 -2 0 -6 9 -9 20 -3 11 -1 20 4 20
5 0 9 -9 9 -20z m82 -19 c-15 -14 -17 -15 -21 -1 -2 8 -8 21 -13 27 -8 10 -4
10 20 2 29 -10 30 -12 14 -28z m355 -3 c-3 -7 -5 -2 -5 12 0 14 2 19 5 13 2
-7 2 -19 0 -25z m63 -8 c0 -5 -5 -10 -11 -10 -5 0 -7 5 -4 10 3 6 8 10 11 10
2 0 4 -4 4 -10z m-199 -40 c10 -6 19 -16 19 -23 0 -8 -3 -8 -9 1 -4 8 -11 13
-15 13 -18 -3 -26 0 -26 9 0 13 6 13 31 0z"/>
<path d="M2057 383 c-2 -5 2 -19 9 -33 8 -14 14 -20 14 -13 0 6 6 13 14 15 10
2 7 8 -9 21 -13 9 -26 14 -28 10z"/>
<path d="M2002 253 c2 -9 11 -17 20 -19 20 -3 13 22 -8 30 -11 4 -14 1 -12
-11z"/>
<path d="M1530 322 c0 -18 5 -29 14 -29 10 0 12 5 7 16 -5 9 -6 22 -4 29 3 6
0 12 -6 12 -6 0 -11 -13 -11 -28z"/>
<path d="M1521 204 c0 -11 3 -14 6 -6 3 7 2 16 -1 19 -3 4 -6 -2 -5 -13z"/>
<path d="M1386 2481 c-3 -4 0 -22 7 -40 13 -34 50 -52 70 -32 6 6 19 11 29 11
20 0 24 15 7 26 -8 4 -7 9 2 15 10 6 6 11 -14 18 -34 13 -94 14 -101 2z"/>
<path d="M1318 2463 c-5 -25 -2 -40 10 -52 20 -21 43 6 31 37 -8 20 -37 31
-41 15z"/>
<path d="M1640 2391 c0 -16 30 -61 41 -61 5 0 9 5 9 11 0 5 -4 7 -10 4 -5 -3
-10 3 -10 13 0 11 -7 25 -15 32 -11 9 -15 9 -15 1z"/>
<path d="M1620 2318 c0 -10 5 -18 10 -18 6 0 10 -17 10 -37 0 -32 2 -35 14
-23 8 8 17 30 21 48 7 32 6 33 -13 23 -17 -9 -23 -8 -31 6 -10 17 -10 17 -11
1z"/>
<path d="M1775 2050 c4 -14 11 -52 17 -85 13 -81 28 -93 28 -24 0 41 -6 64
-26 94 -19 29 -24 33 -19 15z"/>
<path d="M1286 2035 c-10 -15 -12 -25 -5 -25 10 0 9 -16 -7 -115 -5 -29 -4
-29 11 -11 8 11 15 35 15 53 0 24 5 33 16 33 12 0 15 5 9 23 -4 12 -7 32 -7
45 0 29 -12 28 -32 -3z"/>
<path d="M1842 1908 c2 -62 7 -113 11 -113 4 0 8 41 9 90 1 122 0 135 -12 135
-7 0 -10 -40 -8 -112z"/>
<path d="M1354 1955 c22 -96 39 -139 31 -77 -2 15 -4 27 -5 27 -1 0 -4 13 -6
29 -2 16 -8 34 -15 40 -9 8 -10 4 -5 -19z"/>
<path d="M1948 1793 c-5 -59 -4 -73 2 -66 13 14 20 72 10 78 -6 3 -11 -2 -12
-12z"/>
<path d="M1731 1778 c-1 -10 -6 -18 -13 -18 -9 0 -9 -3 -1 -11 18 -18 30 -6
22 21 -4 16 -7 19 -8 8z"/>
<path d="M1640 1730 c0 -11 5 -20 10 -20 6 0 10 9 10 20 0 11 -4 20 -10 20 -5
0 -10 -9 -10 -20z"/>
<path d="M1818 1733 c7 -3 16 -2 19 1 4 3 -2 6 -13 5 -11 0 -14 -3 -6 -6z"/>
<path d="M1170 1660 c-6 -20 -7 -221 0 -225 5 -3 8 14 8 38 0 23 3 60 6 82 4
32 -7 124 -14 105z"/>
<path d="M2024 1627 c1 -11 7 -22 14 -25 17 -5 16 34 -2 41 -9 4 -13 -2 -12
-16z"/>
<path d="M825 1510 c3 -5 8 -10 11 -10 2 0 4 5 4 10 0 6 -5 10 -11 10 -5 0 -7
-4 -4 -10z"/>
<path d="M890 1498 c0 -11 8 -18 20 -18 11 0 20 5 20 11 0 5 -5 7 -11 3 -6 -3
-15 0 -20 7 -7 11 -9 10 -9 -3z"/>
<path d="M780 1480 c0 -7 -3 -11 -6 -7 -9 9 -34 -19 -34 -37 0 -8 8 -20 19
-25 16 -9 19 -6 25 31 4 22 4 43 1 46 -3 3 -5 -1 -5 -8z"/>
<path d="M527 1457 c4 -19 0 -32 -11 -40 -13 -10 -7 -12 34 -12 27 0 50 1 50
3 0 7 -31 62 -35 62 -2 0 -2 -9 0 -21 3 -17 2 -19 -10 -9 -8 7 -12 17 -8 23 3
5 1 7 -5 3 -5 -3 -13 0 -16 6 -3 7 -3 0 1 -15z"/>
<path d="M600 1466 c0 -5 10 -20 23 -35 25 -29 90 -41 80 -15 -8 23 -60 47
-67 31 -3 -8 -9 -6 -20 7 -9 11 -16 16 -16 12z"/>
<path d="M272 1448 c-14 -14 -16 -38 -2 -38 5 0 7 7 4 15 -5 11 -2 13 10 9 9
-3 16 -10 16 -15 0 -5 6 -9 14 -9 15 0 11 36 -5 46 -5 3 -6 -2 -3 -11 5 -11 2
-14 -10 -9 -9 3 -13 10 -10 15 8 13 0 11 -14 -3z"/>
<path d="M336 1446 c3 -8 13 -17 22 -21 13 -5 13 -2 -3 15 -21 24 -26 25 -19
6z"/>
<path d="M410 1436 c0 -17 5 -26 16 -26 10 0 14 7 12 22 -5 32 -28 35 -28 4z"/>
<path d="M56 1435 c-4 -10 1 -15 16 -15 17 0 18 2 8 15 -7 8 -14 15 -15 15 -2
0 -5 -7 -9 -15z"/>
<path d="M460 1431 c0 -28 12 -32 37 -11 l22 18 -22 6 c-34 9 -37 8 -37 -13z"/>
<path d="M800 1435 c0 -9 6 -12 15 -9 8 4 15 10 15 15 0 5 -7 9 -15 9 -8 0
-15 -7 -15 -15z"/>
<path d="M140 1425 c7 -9 15 -13 17 -11 7 7 -7 26 -19 26 -6 0 -6 -6 2 -15z"/>
<path d="M180 1429 c0 -5 5 -7 10 -4 6 3 10 8 10 11 0 2 -4 4 -10 4 -5 0 -10
-5 -10 -11z"/>
<path d="M2192 1320 c0 -19 2 -27 5 -17 2 9 2 25 0 35 -3 9 -5 1 -5 -18z"/>
<path d="M2525 1310 c-3 -5 -2 -10 4 -10 5 0 13 5 16 10 3 6 2 10 -4 10 -5 0
-13 -4 -16 -10z"/>
<path d="M2302 1288 c2 -6 10 -13 16 -14 7 -1 8 0 2 3 -5 2 -8 9 -4 14 3 5 0
9 -6 9 -7 0 -10 -5 -8 -12z"/>
<path d="M2830 1285 c0 -8 4 -15 10 -15 5 0 7 7 4 15 -4 8 -8 15 -10 15 -2 0
-4 -7 -4 -15z"/>
<path d="M2865 1290 c3 -5 8 -10 11 -10 2 0 4 5 4 10 0 6 -5 10 -11 10 -5 0
-7 -4 -4 -10z"/>
<path d="M2901 1274 c0 -11 3 -14 6 -6 3 7 2 16 -1 19 -3 4 -6 -2 -5 -13z"/>
<path d="M2535 1271 c-3 -5 -2 -12 3 -15 5 -3 9 1 9 9 0 17 -3 19 -12 6z"/>
<path d="M2271 1254 c0 -11 3 -14 6 -6 3 7 2 16 -1 19 -3 4 -6 -2 -5 -13z"/>
<path d="M2311 1253 c0 -6 -4 -20 -7 -30 -5 -14 -4 -15 5 -7 7 7 11 20 8 30
-3 11 -5 14 -6 7z"/>
<path d="M2740 1233 c0 -21 3 -24 9 -14 5 8 7 20 4 28 -8 21 -13 15 -13 -14z"/>
<path d="M2820 1208 c0 -16 5 -28 10 -28 13 0 13 20 0 40 -8 12 -10 9 -10 -12z"/>
<path d="M974 1078 c-11 -17 -16 -78 -6 -78 5 0 17 9 27 20 18 19 17 20 -5 20
-22 0 -22 1 -6 25 9 14 12 25 7 25 -5 0 -13 -5 -17 -12z"/>
<path d="M2100 1010 l-25 -7 27 -11 c14 -6 31 -19 37 -29 9 -15 10 -13 11 13
0 35 -13 44 -50 34z"/>
<path d="M1315 910 c-3 -5 -1 -10 4 -10 6 0 11 5 11 10 0 6 -2 10 -4 10 -3 0
-8 -4 -11 -10z"/>
<path d="M2770 864 c0 -11 84 -113 94 -114 5 0 1 10 -10 23 -11 12 -34 39 -52
60 -18 21 -32 35 -32 31z"/>
<path d="M865 827 c-17 -13 -17 -14 6 -20 13 -3 26 -3 29 1 8 11 50 13 50 1 0
-5 5 -7 10 -4 8 5 7 11 -1 21 -15 18 -69 18 -94 1z"/>
<path d="M2557 825 c-4 -8 -2 -17 3 -20 6 -4 10 3 10 14 0 25 -6 27 -13 6z"/>
<path d="M2670 830 c0 -8 5 -22 10 -30 9 -13 10 -13 10 0 0 8 -5 22 -10 30 -9
13 -10 13 -10 0z"/>
<path d="M2936 813 c-6 -14 -5 -15 5 -6 7 7 10 15 7 18 -3 3 -9 -2 -12 -12z"/>
<path d="M1206 804 c-5 -12 -2 -15 10 -10 8 3 18 6 20 6 3 0 2 5 -1 10 -9 15
-22 12 -29 -6z"/>
<path d="M2723 809 c3 -9 0 -22 -6 -28 -6 -6 -7 -11 -3 -11 5 0 3 -7 -4 -15
-9 -11 -10 -19 -3 -26 6 -6 14 4 22 32 10 33 10 44 0 53 -9 8 -11 7 -6 -5z"/>
<path d="M2970 800 c0 -5 -6 -10 -14 -10 -12 0 -12 -6 -3 -35 14 -48 27 -44
27 10 0 25 -2 45 -5 45 -3 0 -5 -4 -5 -10z"/>
<path d="M783 743 c-29 -30 -53 -60 -53 -66 0 -6 25 15 55 46 30 31 55 61 55
67 0 14 1 15 -57 -47z"/>
<path d="M2901 754 c0 -11 3 -14 6 -6 3 7 2 16 -1 19 -3 4 -6 -2 -5 -13z"/>
<path d="M2540 741 c0 -5 7 -12 16 -15 14 -5 15 -4 4 9 -14 17 -20 19 -20 6z"/>
<path d="M2775 725 c-3 -8 -7 -21 -9 -29 -3 -8 1 -19 8 -25 9 -8 13 -1 14 29
3 40 -5 53 -13 25z"/>
<path d="M2807 720 c-3 -11 -1 -20 4 -20 5 0 9 9 9 20 0 11 -2 20 -4 20 -2 0
-6 -9 -9 -20z"/>
<path d="M210 642 c0 -5 7 -13 16 -16 10 -4 14 -1 12 6 -5 15 -28 23 -28 10z"/>
<path d="M350 640 c0 -5 5 -10 11 -10 5 0 7 5 4 10 -3 6 -8 10 -11 10 -2 0 -4
-4 -4 -10z"/>
<path d="M590 643 c0 -4 5 -15 10 -23 8 -13 10 -13 10 2 0 9 -4 20 -10 23 -5
3 -10 3 -10 -2z"/>
<path d="M2701 634 c0 -11 3 -14 6 -6 3 7 2 16 -1 19 -3 4 -6 -2 -5 -13z"/>
<path d="M2727 644 c-11 -11 -8 -36 3 -29 6 4 11 -6 11 -22 1 -20 3 -22 6 -8
5 25 -10 69 -20 59z"/>
<path d="M2861 640 c-2 -30 11 -59 24 -53 8 2 11 11 8 19 -3 8 -9 12 -13 9 -5
-3 -11 5 -13 17 -2 13 -5 16 -6 8z"/>
<path d="M696 593 c-19 -54 -19 -56 -7 -49 13 8 42 96 31 96 -4 0 -15 -21 -24
-47z"/>
<path d="M330 615 c0 -26 12 -44 26 -38 21 8 17 40 -6 46 -13 3 -20 0 -20 -8z"/>
<path d="M564 614 c3 -9 6 -18 6 -20 0 -2 5 -4 11 -4 8 0 9 4 0 13 -6 8 -8 17
-4 20 3 4 1 7 -6 7 -8 0 -11 -6 -7 -16z"/>
<path d="M470 608 c0 -9 5 -20 10 -23 13 -8 13 5 0 25 -8 13 -10 13 -10 -2z"/>
<path d="M2681 604 c0 -11 3 -14 6 -6 3 7 2 16 -1 19 -3 4 -6 -2 -5 -13z"/>
<path d="M2920 610 c0 -5 7 -7 15 -4 8 4 15 8 15 10 0 2 -7 4 -15 4 -8 0 -15
-4 -15 -10z"/>
<path d="M279 608 c-7 -29 -5 -36 7 -31 16 6 18 19 4 28 -5 3 -10 5 -11 3z"/>
<path d="M400 586 c0 -32 15 -42 18 -11 1 13 -3 27 -8 30 -6 3 -10 -5 -10 -19z"/>
<path d="M2124 596 c-6 -6 -8 -18 -5 -26 6 -16 41 -23 41 -9 0 5 -4 9 -9 9 -5
0 -11 9 -13 19 -2 14 -6 16 -14 7z"/>
<path d="M551 583 c-1 -12 -4 -30 -8 -40 -6 -17 -6 -17 10 -1 13 12 15 22 8
40 -10 23 -10 23 -10 1z"/>
<path d="M449 563 c-4 -21 -1 -34 8 -37 14 -6 15 5 4 44 -7 24 -8 24 -12 -7z"/>
<path d="M2570 580 c7 -48 -1 -89 -17 -93 -15 -4 -15 -5 2 -6 15 -1 17 -3 6
-10 -16 -10 -51 -3 -51 11 0 5 5 19 11 30 9 17 13 18 20 7 5 -8 9 -9 9 -3 0 5
-7 19 -15 30 -14 19 -14 19 -15 -3 0 -12 -4 -25 -10 -28 -5 -3 -11 -18 -11
-33 -2 -24 -2 -24 -6 -4 -5 26 -23 20 -23 -8 0 -10 -6 -25 -14 -32 -11 -12
-11 -17 4 -36 10 -11 20 -19 23 -16 3 3 3 -3 0 -15 -3 -12 -10 -21 -15 -21 -6
0 -7 -7 -4 -16 3 -8 2 -12 -4 -9 -5 3 -15 -2 -22 -10 -7 -9 -20 -24 -28 -33
-8 -9 -23 -37 -32 -61 l-18 -44 40 -43 c29 -31 40 -39 41 -26 0 9 8 -2 17 -25
15 -38 19 -40 29 -25 11 15 12 15 6 -3 -3 -11 -2 -17 2 -12 5 4 8 29 7 55 0
26 2 41 5 33 4 -10 11 -4 23 19 12 24 18 29 23 17 3 -8 -3 -31 -14 -51 -21
-39 -28 -84 -8 -56 8 11 9 7 4 -17 -6 -29 -4 -33 20 -39 18 -4 30 -2 37 7 7
11 11 11 15 2 8 -22 76 -16 91 8 8 12 9 18 4 15 -5 -3 -15 0 -21 8 -8 9 -6 23
10 52 11 21 18 31 15 21 -4 -11 -9 -30 -12 -43 l-6 -24 31 17 c17 10 34 28 37
40 3 13 17 49 30 80 21 52 24 55 24 26 0 -17 5 -33 10 -35 12 -4 -10 -58 -22
-58 -5 0 -8 -7 -8 -15 0 -8 5 -15 10 -15 6 0 10 7 10 16 0 11 6 13 19 9 23 -7
58 36 45 56 -4 8 -13 0 -25 -22 -24 -44 -23 -26 1 26 10 22 19 32 19 23 3 -54
51 24 51 79 -1 27 -1 27 -15 9 -8 -11 -15 -16 -15 -10 0 5 7 18 15 28 17 22
20 67 6 94 -5 9 -15 37 -22 60 -11 39 -14 42 -26 27 -7 -10 -10 -21 -8 -26 3
-4 0 -11 -6 -15 -13 -7 -9 46 6 79 8 19 -13 21 -28 2 -5 -6 -6 5 -3 23 4 20 2
31 -4 27 -13 -8 -13 -62 0 -70 6 -3 10 -18 10 -33 -1 -26 -1 -26 -15 -8 -15
20 -15 20 -16 0 0 -10 -6 7 -13 38 -13 60 -30 93 -24 46 2 -15 7 -30 11 -34
11 -11 8 -36 -3 -29 -6 3 -5 -6 2 -21 10 -22 10 -28 0 -32 -10 -3 -10 -9 2
-28 12 -18 14 -32 7 -61 -8 -33 -9 -35 -10 -10 -1 16 -5 26 -11 22 -5 -3 -10
-1 -10 4 0 6 5 11 10 11 13 0 13 27 1 34 -5 4 -19 -23 -31 -60 -12 -36 -24
-63 -26 -61 -3 2 0 16 5 31 12 31 -1 34 -55 11 -19 -8 -41 -12 -49 -9 -10 4
-15 0 -15 -14 0 -15 -5 -19 -21 -15 -13 4 -17 9 -10 16 5 5 7 16 4 23 -4 10 0
12 11 8 11 -4 16 0 17 12 0 11 3 14 5 7 3 -7 13 -9 22 -6 15 6 15 5 3 -10 -16
-20 1 -23 21 -4 7 6 23 13 36 15 28 3 46 19 54 50 4 15 2 22 -9 22 -8 0 -17
-10 -21 -22 l-5 -22 -8 22 c-4 11 -6 33 -3 47 4 25 3 26 -11 12 -8 -9 -16 -27
-17 -42 -2 -23 -4 -24 -14 -10 -9 12 -13 13 -18 3 -3 -7 -3 -3 -1 8 4 14 0 24
-10 28 -8 3 -15 1 -15 -4 0 -6 -4 -10 -9 -10 -11 0 -20 57 -11 67 16 18 18 59
4 78 -11 14 -15 15 -14 5z m-36 -138 c2 -4 -5 -9 -17 -9 -17 -2 -19 0 -7 7 18
12 18 12 24 2z m-57 -24 c-3 -8 -6 -5 -6 6 -1 11 2 17 5 13 3 -3 4 -12 1 -19z
m126 -12 c6 -16 -2 -28 -14 -20 -12 7 -11 34 0 34 5 0 11 -6 14 -14z m206 -73
c-1 -37 -1 -37 -8 -8 -7 28 -5 45 5 45 2 0 3 -17 3 -37z m62 -24 l-10 -34 4
35 c4 45 4 44 11 38 3 -3 1 -21 -5 -39z m-299 -77 c3 -11 0 -19 -8 -19 -16 0
-16 0 -8 21 8 21 11 20 16 -2z m315 -4 c-3 -8 -6 -5 -6 6 -1 11 2 17 5 13 3
-3 4 -12 1 -19z m-126 -51 c-8 -8 -11 -3 -11 19 1 25 2 27 11 11 8 -14 8 -22
0 -30z m-84 1 c-3 -8 -6 -5 -6 6 -1 11 2 17 5 13 3 -3 4 -12 1 -19z m-19 -112
c-13 -15 -16 -4 -10 39 l6 40 6 -35 c3 -19 3 -39 -2 -44z"/>
<path d="M2377 567 c-11 -29 -9 -43 4 -30 6 6 9 19 7 29 -3 18 -4 18 -11 1z"/>
<path d="M2476 558 c1 -13 3 -27 3 -33 1 -5 5 -4 10 4 9 14 3 51 -8 51 -4 0
-7 -10 -5 -22z"/>
<path d="M2910 571 c0 -5 6 -14 14 -20 12 -10 13 -8 9 8 -5 21 -23 30 -23 12z"/>
<path d="M2176 546 c1 -12 3 -25 3 -31 1 -13 50 -70 55 -64 11 12 10 44 -2 41
-9 -2 -11 4 -7 18 8 26 -8 53 -32 55 -14 1 -19 -4 -17 -19z"/>
<path d="M761 541 c-8 -5 -15 -35 -18 -73 -5 -55 -3 -66 12 -71 22 -9 36 0 29
18 -4 8 -10 12 -15 9 -5 -3 -9 4 -9 15 0 12 6 20 13 19 6 -2 12 4 12 12 0 8
-6 14 -12 13 -7 -2 -13 6 -13 17 0 13 5 18 15 14 10 -4 15 0 15 15 0 23 -7 26
-29 12z"/>
<path d="M2673 538 c0 -7 -4 -26 -7 -43 -5 -20 -4 -25 2 -15 14 23 23 70 14
70 -5 0 -9 -6 -9 -12z"/>
<path d="M2325 530 c-3 -5 0 -7 8 -4 8 3 17 -2 20 -10 4 -9 12 -16 18 -16 7 0
5 8 -6 20 -20 22 -31 25 -40 10z"/>
<path d="M2132 510 c-20 -32 -14 -45 8 -17 11 14 20 28 20 31 0 13 -16 5 -28
-14z"/>
<path d="M490 510 c0 -5 5 -10 10 -10 6 0 10 5 10 10 0 6 -4 10 -10 10 -5 0
-10 -4 -10 -10z"/>
<path d="M547 513 c-12 -12 -7 -22 8 -17 8 4 15 10 15 15 0 11 -14 12 -23 2z"/>
<path d="M2730 501 c0 -19 -2 -20 -22 -10 -19 9 -21 9 -10 -2 6 -7 12 -23 12
-36 0 -13 5 -23 10 -23 6 0 10 6 10 13 0 8 4 7 10 -3 7 -10 8 -1 4 30 -8 50
-14 65 -14 31z"/>
<path d="M141 494 c0 -11 3 -14 6 -6 3 7 2 16 -1 19 -3 4 -6 -2 -5 -13z"/>
<path d="M296 485 c-9 -26 -7 -32 5 -12 6 10 9 21 6 23 -2 3 -7 -2 -11 -11z"/>
<path d="M2281 485 c0 -11 4 -27 9 -35 9 -13 10 -13 9 0 0 8 -4 24 -9 35 l-9
20 0 -20z"/>
<path d="M2431 484 c0 -11 3 -14 6 -6 3 7 2 16 -1 19 -3 4 -6 -2 -5 -13z"/>
<path d="M502 478 c-7 -7 -12 -18 -12 -26 0 -7 -4 -10 -10 -7 -5 3 -10 -1 -10
-9 0 -9 7 -16 16 -16 8 0 13 4 10 8 -3 5 1 20 9 35 15 30 15 33 -3 15z"/>
<path d="M700 461 c0 -23 -5 -31 -18 -31 -22 0 -23 -7 -25 -128 -1 -59 2 -97
9 -103 15 -12 11 -64 -6 -84 -11 -13 -10 -14 4 -9 12 4 16 0 16 -15 0 -19 -3
-20 -22 -10 -16 9 -23 9 -26 0 -2 -6 -10 -11 -18 -11 -8 0 -14 -9 -14 -20 0
-11 5 -20 11 -20 8 0 8 -4 0 -13 -8 -10 -7 -14 4 -14 9 0 15 10 15 24 0 31 16
29 24 -3 5 -20 12 -25 33 -22 22 2 29 12 44 58 12 36 14 60 8 71 -12 24 -12
62 1 54 6 -4 8 -11 5 -16 -3 -5 1 -6 10 -3 13 6 12 9 -7 23 -13 9 -26 15 -30
13 -5 -1 -8 10 -8 24 0 14 -4 23 -9 20 -9 -6 -19 34 -27 105 -4 28 1 41 21 63
26 28 33 60 15 71 -6 4 -10 -7 -10 -24z m-23 -423 c-3 -8 -6 -5 -6 6 -1 11 2
17 5 13 3 -3 4 -12 1 -19z"/>
<path d="M2600 480 c0 -5 5 -10 10 -10 6 0 10 5 10 10 0 6 -4 10 -10 10 -5 0
-10 -4 -10 -10z"/>
<path d="M2913 483 c-15 -5 -17 -23 -4 -23 5 0 11 7 15 15 3 8 4 15 3 14 -1 0
-8 -3 -14 -6z"/>
<path d="M2925 404 c8 -26 12 -61 9 -78 l-5 -31 14 25 c10 16 12 30 7 41 -5 9
-7 34 -5 55 4 32 3 34 -4 14 -9 -24 -9 -24 -10 -2 -1 12 -5 22 -11 22 -5 0 -3
-20 5 -46z"/>
<path d="M212 416 c-17 -37 -15 -45 4 -18 8 12 14 27 12 33 -2 6 -9 -1 -16
-15z"/>
<path d="M290 430 c0 -5 5 -10 11 -10 5 0 7 5 4 10 -3 6 -8 10 -11 10 -2 0 -4
-4 -4 -10z"/>
<path d="M525 429 c-4 -6 -5 -12 -2 -15 2 -3 7 2 10 11 7 17 1 20 -8 4z"/>
<path d="M2110 430 c0 -5 5 -10 10 -10 6 0 10 5 10 10 0 6 -4 10 -10 10 -5 0
-10 -4 -10 -10z"/>
<path d="M2242 400 c0 -14 2 -19 5 -12 2 6 2 18 0 25 -3 6 -5 1 -5 -13z"/>
<path d="M2986 402 c-4 -8 -5 -43 -1 -78 4 -36 3 -64 -2 -63 -22 4 -33 -3 -33
-20 0 -11 -4 -22 -9 -25 -13 -8 -34 -131 -26 -155 4 -15 3 -21 -7 -19 -7 2
-13 -6 -13 -17 0 -15 7 -20 25 -20 22 0 25 4 22 30 l-3 30 17 -24 c17 -24 18
-24 25 -4 8 22 6 55 -6 88 -5 16 -5 17 4 5 9 -13 11 -13 11 1 0 9 3 38 6 65
l7 49 -34 -30 -34 -30 33 36 c32 35 33 38 30 115 -2 49 -6 74 -12 66z"/>
<path d="M243 366 c0 -28 0 -28 13 -11 8 10 14 24 14 29 0 6 -4 5 -9 -3 -7
-11 -9 -11 -13 0 -3 8 -5 1 -5 -15z"/>
<path d="M300 375 c0 -8 4 -15 9 -15 5 0 11 7 15 15 3 9 0 15 -9 15 -8 0 -15
-7 -15 -15z"/>
<path d="M76 362 c-2 -4 -1 -14 5 -22 7 -12 9 -10 9 8 0 23 -5 28 -14 14z"/>
<path d="M455 360 c3 -5 8 -10 11 -10 2 0 4 5 4 10 0 6 -5 10 -11 10 -5 0 -7
-4 -4 -10z"/>
<path d="M1 344 c0 -11 3 -14 6 -6 3 7 2 16 -1 19 -3 4 -6 -2 -5 -13z"/>
<path d="M181 334 c0 -11 3 -14 6 -6 3 7 2 16 -1 19 -3 4 -6 -2 -5 -13z"/>
<path d="M56 315 c-3 -9 -6 -22 -5 -28 0 -7 5 -1 10 12 5 13 8 26 5 28 -2 2
-6 -3 -10 -12z"/>
<path d="M322 319 c2 -7 10 -15 17 -17 8 -3 12 1 9 9 -2 7 -10 15 -17 17 -8 3
-12 -1 -9 -9z"/>
<path d="M31 312 c-1 -8 -6 -10 -13 -6 -10 5 -10 4 -1 -6 15 -16 28 -8 20 12
-4 11 -6 11 -6 0z"/>
<path d="M460 310 c0 -5 5 -10 11 -10 5 0 7 5 4 10 -3 6 -8 10 -11 10 -2 0 -4
-4 -4 -10z"/>
<path d="M230 284 c0 -8 5 -12 10 -9 6 3 10 10 10 16 0 5 -4 9 -10 9 -5 0 -10
-7 -10 -16z"/>
<path d="M180 278 c0 -8 7 -15 15 -15 18 0 15 19 -3 25 -7 2 -12 -3 -12 -10z"/>
<path d="M256 259 c-4 -10 1 -29 12 -49 19 -30 21 -31 31 -12 6 10 7 22 4 26
-3 3 -1 6 7 6 10 0 10 3 0 15 -13 15 -35 11 -25 -6 4 -5 2 -9 -4 -9 -5 0 -11
10 -14 23 -3 18 -5 19 -11 6z"/>
<path d="M27 214 c-3 -5 1 -15 9 -22 16 -14 18 -5 5 17 -5 7 -11 9 -14 5z"/>
<path d="M67 196 c-4 -10 -1 -13 9 -9 7 3 14 9 14 14 0 14 -17 10 -23 -5z"/>
<path d="M2331 181 c-19 -27 -71 -154 -71 -173 0 -5 9 -8 20 -8 15 0 23 12 35
54 9 30 13 67 10 83 -4 23 -4 24 4 8 10 -21 11 -18 15 28 1 6 5 15 11 19 5 4
7 10 3 13 -3 3 -15 -7 -27 -24z"/>
<path d="M132 176 c-15 -33 -11 -44 7 -22 7 8 11 23 9 32 -2 14 -6 11 -16 -10z"/>
<path d="M97 183 c-4 -3 -7 -15 -7 -25 0 -10 -4 -18 -10 -18 -5 0 -10 -8 -10
-17 0 -15 -2 -16 -10 -3 -7 12 -12 12 -22 2 -9 -9 -9 -15 1 -24 10 -11 18 -6
41 22 30 36 45 91 17 63z"/>
<path d="M192 170 c0 -14 2 -19 5 -12 2 6 2 18 0 25 -3 6 -5 1 -5 -13z"/>
<path d="M641 174 c0 -11 3 -14 6 -6 3 7 2 16 -1 19 -3 4 -6 -2 -5 -13z"/>
<path d="M220 134 c0 -22 2 -25 15 -14 12 10 13 16 4 26 -16 20 -19 18 -19
-12z"/>
<path d="M335 150 c3 -5 8 -10 11 -10 2 0 4 5 4 10 0 6 -5 10 -11 10 -5 0 -7
-4 -4 -10z"/>
<path d="M2347 129 c-3 -12 -4 -36 -1 -53 4 -21 3 -27 -4 -18 -7 11 -12 6 -21
-19 -6 -17 -11 -34 -11 -35 0 -2 33 -4 74 -4 72 0 74 1 68 22 -7 24 -82 126
-93 127 -4 1 -9 -9 -12 -20z"/>
<path d="M367 133 c-14 -13 -7 -53 8 -53 12 0 14 7 9 28 -8 33 -9 34 -17 25z"/>
<path d="M451 124 c0 -11 3 -14 6 -6 3 7 2 16 -1 19 -3 4 -6 -2 -5 -13z"/>
<path d="M562 135 c4 -4 3 -16 -2 -25 -7 -13 -5 -22 7 -31 14 -12 15 -11 9 8
-5 15 -2 22 9 25 12 2 11 6 -7 17 -13 7 -20 10 -16 6z"/>
<path d="M137 123 c-11 -10 -8 -51 3 -58 6 -4 10 8 10 29 0 37 -2 41 -13 29z"/>
<path d="M279 107 c-15 -21 -38 -78 -26 -67 9 9 48 82 45 85 -2 2 -10 -7 -19
-18z"/>
<path d="M335 120 c3 -5 8 -10 11 -10 2 0 4 5 4 10 0 6 -5 10 -11 10 -5 0 -7
-4 -4 -10z"/>
<path d="M501 111 c-11 -7 -9 -13 8 -30 11 -11 17 -21 11 -21 -5 0 -10 -5 -10
-11 0 -5 4 -8 9 -5 5 4 11 2 13 -4 1 -5 9 -6 16 -1 10 6 10 13 -3 37 -8 16
-15 25 -16 19 0 -5 -3 -2 -7 7 -5 12 -12 14 -21 9z"/>
<path d="M616 103 c-6 -14 -5 -15 5 -6 7 7 10 15 7 18 -3 3 -9 -2 -12 -12z"/>
<path d="M757 81 c-3 -16 -9 -40 -13 -55 -3 -14 -2 -26 3 -26 5 0 14 25 20 55
10 55 0 80 -10 26z"/>
<path d="M333 93 c-7 -2 -9 -12 -6 -20 5 -12 2 -15 -10 -10 -22 8 -39 -22 -26
-46 6 -9 17 -17 24 -17 17 0 20 16 5 25 -5 3 -10 11 -10 17 0 6 3 9 6 5 9 -9
36 21 32 36 -2 8 -8 12 -15 10z"/>
<path d="M2826 91 c-4 -7 -5 -15 -2 -18 9 -9 19 4 14 18 -4 11 -6 11 -12 0z"/>
<path d="M40 70 c0 -5 5 -10 10 -10 6 0 10 5 10 10 0 6 -4 10 -10 10 -5 0 -10
-4 -10 -10z"/>
<path d="M206 68 c-13 -41 -15 -68 -6 -68 5 0 10 11 10 24 0 14 5 28 10 31 6
3 10 10 10 16 0 14 -20 11 -24 -3z"/>
<path d="M2787 63 c-2 -10 -8 -27 -12 -38 -6 -15 -2 -13 19 8 14 16 24 33 21
38 -10 14 -22 11 -28 -8z"/>
<path d="M1132 43 c-30 -33 -28 -43 8 -43 27 0 30 3 30 29 0 40 -11 44 -38 14z"/>
<path d="M20 42 c6 -13 14 -21 18 -18 3 4 -2 14 -12 24 -18 16 -18 16 -6 -6z"/>
<path d="M366 35 c8 -19 14 -19 14 0 0 8 -4 15 -10 15 -5 0 -7 -7 -4 -15z"/>
<path d="M90 30 c0 -5 5 -10 11 -10 5 0 7 5 4 10 -3 6 -8 10 -11 10 -2 0 -4
-4 -4 -10z"/>
<path d="M220 20 c0 -5 5 -10 11 -10 5 0 7 5 4 10 -3 6 -8 10 -11 10 -2 0 -4
-4 -4 -10z"/>
<path d="M420 15 c0 -8 4 -15 10 -15 5 0 7 7 4 15 -8 19 -14 19 -14 0z"/>
<path d="M2796 21 c-4 -7 -5 -15 -2 -18 9 -9 19 4 14 18 -4 11 -6 11 -12 0z"/>
<path d="M555 10 c-3 -5 -1 -10 4 -10 6 0 11 5 11 10 0 6 -2 10 -4 10 -3 0 -8
-4 -11 -10z"/>
</g>
</svg>
